<?xml version="1.0" encoding="utf-8"?>
<!-- Generator: Adobe Illustrator 20.1.0, SVG Export Plug-In . SVG Version: 6.00 Build 0)  -->
<svg version="1.1" id="Layer_1" xmlns="http://www.w3.org/2000/svg" xmlns:xlink="http://www.w3.org/1999/xlink" x="0px" y="0px"
	 viewBox="0 0 141.7 141.7" style="enable-background:new 0 0 141.7 141.7; height: 32px; width: 32px" xml:space="preserve">
<style type="text/css">
	.st0{fill:#FFFFFF;stroke:#000000;stroke-width:0.5;stroke-miterlimit:10;}
	.st1{fill:none;}
	.st2{fill:#3F3C3D;}
	.st3{stroke:#FFFFFF;stroke-width:0.5;stroke-miterlimit:10;}
	.st4{fill:#FFFFFF;stroke:#000000;stroke-width:0.4798;stroke-miterlimit:10;}
	.st5{fill:#FFFFFF;stroke:#000000;stroke-width:0.4031;stroke-miterlimit:10;}
	.st6{stroke:#020202;stroke-width:0.421;stroke-miterlimit:10;}
	.st7{fill:#FFFFFF;}
	.st8{stroke:#020202;stroke-width:0.4259;stroke-miterlimit:10;}
	.st9{stroke:#020202;stroke-width:0.3438;stroke-miterlimit:10;}
</style>
<path class="st0" d="M122.3,68.2c0-0.2,0-0.3,0-0.5c0-0.1,0-0.3,0-0.4c0-0.3,0-0.6,0-0.8c0-0.1,0-0.2,0-0.3c0-0.3,0-0.6,0-0.9
	c0,0,0,0,0,0c0,0,0,0,0,0c0-0.3,0-0.6,0-0.9c0-0.1,0-0.2,0-0.3c0-0.3,0-0.6,0-0.8c0-0.1,0-0.3,0-0.4c0-0.2,0-0.4,0-0.6
	c0-0.2,0-0.5,0-0.7c0-0.1,0-0.2,0-0.4c-1.7-22.1-17.8-40.3-38.9-45.1l0,0c-3.6-0.8-7.4-1.3-11.3-1.3c-4,0-7.9,0.5-11.6,1.3l0,0
	C39.9,21,24.1,38.5,21.9,60c0,0.1,0,0.1,0,0.2c0,0.3-0.1,0.6-0.1,0.9c0,0.1,0,0.3,0,0.4c0,0.2,0,0.3,0,0.5c0,0.3,0,0.5,0,0.8
	c0,0.1,0,0.2,0,0.4c0,0.3,0,0.6,0,0.8c0,0.1,0,0.1,0,0.2c0,0.3,0,0.6,0,0.9c0,0,0,0.1,0,0.1c0,0,0,0,0,0.1c0,0,0,0,0,0.1
	c0,0,0,0.1,0,0.1c0,0.3,0,0.6,0,0.9c0,0.1,0,0.1,0,0.2c0,0.3,0,0.6,0,0.9c0,0.1,0,0.2,0,0.4c0,0.3,0,0.5,0,0.8c0,0.2,0,0.3,0,0.5
	c0,0.1,0,0.3,0,0.4c0,0.3,0,0.6,0.1,0.8c0,0.1,0,0.2,0,0.2c2.2,21.7,18.1,39.2,38.9,44l0,0c3.6,0.8,7.3,1.2,11.1,1.3
	c4.1,0,11.8-1.3,11.8-1.3c20.9-5,36.8-23,38.5-45c0-0.1,0-0.2,0-0.3C122.3,68.7,122.3,68.5,122.3,68.2z M31.6,69.3
	C31.6,69.3,31.6,69.3,31.6,69.3c0-0.3-0.1-0.7-0.1-1c0,0,0-0.1,0-0.1c0-0.3,0-0.6-0.1-0.9c0,0,0-0.1,0-0.1c0-0.7,0-1.3,0-2
	c0-0.7,0-1.3,0.1-2c0,0,0-0.1,0-0.1c0-0.3,0-0.6,0.1-0.9c0,0,0-0.1,0-0.1c0-0.3,0.1-0.6,0.1-1c0,0,0,0,0,0
	C33.7,40.6,51,24.6,72,24.6c21.4,0,38.9,16.5,40.5,37.5c0,0,0,0.1,0,0.1c0,0.3,0,0.6,0.1,0.9c0,0.1,0,0.1,0,0.2c0,0.3,0,0.5,0,0.8
	c0,0.1,0,0.1,0,0.2c0,0.3,0,0.5,0,0.8c0,0.1,0,0.1,0,0.2c0,0.1,0,0.1,0,0.2c0,0.3,0,0.6,0,0.8c0,0.1,0,0.1,0,0.2c0,0.3,0,0.6,0,0.8
	c0,0.1,0,0.1,0,0.2c0,0.3,0,0.6-0.1,0.9c0,0,0,0,0,0.1c-1.7,21-19.2,37.4-40.6,37.4C50.9,105.8,33.7,89.8,31.6,69.3z"/>
<path id="SVGID_x5F_1_x5F_" class="st1" d="M113.6,59c3.5,22.9-12.3,44.4-35.3,47.9s-44.5-12.3-48-35.2s12.3-44.4,35.3-47.9
	S110.1,36.1,113.6,59z"/>
<text><textPath  xlink:href="#SVGID_x5F_1_x5F_" startOffset="92.4153%">
<tspan  style="font-family:'TrajanPro-Regular'; font-size:7.6551px;"> </tspan><tspan  style="font-family:'TrajanPro-Regular'; font-size:8.89px;">         </tspan><tspan  style="font-family:'TrajanPro-Regular'; font-size:8.9529px;">TORCH      TORCH     TORCH      TORCH</tspan><tspan  style="font-family:'TrajanPro-Regular'; font-size:9.2417px;">  </tspan><tspan  style="font-family:'TrajanPro-Regular'; font-size:7.6551px;">  </tspan></textPath>
</text>
<path d="M31.6,80.9c-0.1-0.2-0.1-0.3-0.2-0.5c0-0.1-0.1-0.2-0.1-0.2l-2.8,1c0,0,0,0.1,0.1,0.3c0.1,0.2,0.2,0.5,0.3,0.8
	c0.2,0.5,0.4,1.1,0.4,1.1L28,84.1c0,0-0.1-0.4-0.4-0.9c-0.1-0.3-0.2-0.6-0.4-1c-0.1-0.4-0.2-0.7-0.4-1.1c-0.1-0.4-0.2-0.8-0.4-1.1
	c-0.1-0.4-0.2-0.7-0.3-1c-0.2-0.6-0.3-1-0.3-1l1.4-0.4c0,0,0.2,0.6,0.3,1.1c0.1,0.3,0.1,0.6,0.2,0.8c0.1,0.2,0.1,0.3,0.1,0.3L31,79
	c0,0-0.1-0.2-0.1-0.4c-0.1-0.3-0.2-0.6-0.3-1c-0.1-0.4-0.2-0.7-0.3-1c0-0.1-0.1-0.2-0.1-0.3c0-0.1,0-0.1,0-0.1s-0.1-0.3-0.1-0.7
	c0-0.2-0.1-0.4-0.2-0.7c-0.1-0.2-0.1-0.5-0.2-0.8c-0.1-0.5-0.2-1.1-0.2-1.5c0-0.2-0.1-0.4-0.1-0.5c0-0.1,0-0.2,0-0.2l-3,0.4
	c0,0,0,0,0,0.1c0,0.1,0,0.2,0,0.3c0,0.2,0.1,0.5,0.1,0.8c0.1,0.6,0.2,1.2,0.2,1.2l-1.5,0.3c0,0-0.1-0.4-0.2-1c0-0.3-0.1-0.6-0.2-1
	c0-0.2-0.1-0.4-0.1-0.6c0-0.2,0-0.4-0.1-0.6c-0.1-0.8-0.2-1.6-0.2-2.2c0-0.6-0.1-1-0.1-1l1.5-0.1c0,0,0,0.6,0.1,1.2
	c0,0.1,0,0.3,0,0.4c0,0.1,0,0.3,0,0.4c0,0.2,0,0.4,0,0.4l3-0.3c0,0,0-0.2-0.1-0.5c0-0.1,0-0.1,0-0.2c0-0.1,0-0.2,0-0.2
	c0-0.2,0-0.4,0-0.5c0-0.7-0.1-1.5-0.1-1.5s0-1.1,0-2.2c0-1.1,0.1-2.2,0.1-2.2l-3-0.2c0,0,0,0.6,0,1.2c0,0.3,0,0.6,0,0.8
	c0,0.2,0,0.4,0,0.4l-1.5,0c0,0,0,0,0-0.1c0,0,0-0.1,0-0.2c0-0.2,0-0.4,0-0.7c0-0.3,0-0.6,0-1c0-0.2,0-0.4,0-0.6c0-0.2,0-0.4,0-0.6
	c0-0.4,0.1-0.8,0.1-1.2c0-0.4,0.1-0.7,0.1-1c0.1-0.6,0.1-1,0.1-1l1.5,0.2c0,0-0.1,0.6-0.2,1.2c0,0.3-0.1,0.6-0.1,0.8
	c0,0.2,0,0.4,0,0.4l3,0.3c0,0,0-0.2,0-0.5c0-0.1,0-0.3,0-0.5c0-0.2,0-0.4,0.1-0.5c0.1-0.7,0.2-1.4,0.2-1.4l-0.8-0.1
	c0,0-0.1,0.6-0.1,1.1c0,0.3-0.1,0.6-0.1,0.8c0,0.1,0,0.2,0,0.3c0,0.1,0,0.1,0,0.1L27,61c0,0,0,0,0-0.1c0-0.1,0-0.2,0-0.3
	c0-0.2,0.1-0.5,0.1-0.8c0.1-0.6,0.2-1.1,0.2-1.1l-3-0.5c0,0-0.1,0.5-0.2,1.3c-0.1,0.8-0.2,1.8-0.3,2.8c0,0.3-0.1,0.5-0.1,0.8
	c0,0.2,0,0.5,0,0.7c0,0.5,0,0.9,0,1.3c0,0.1,0,0.2,0,0.3c0,0.1,0,0.2,0,0.2c0,0.2,0,0.3,0,0.4c0,0.2,0,0.3,0,0.3l3.1,0
	c0,0,0-0.1,0-0.4c0-0.2,0-0.5,0-0.8c0-0.6,0-1.2,0-1.2l1.5,0.1c0,0,0,0.2,0,0.6c0,0.3,0,0.8,0,1.3c0,0.9,0,1.8,0,1.8l0.1,2.2
	L26.9,70l-0.2-2.3l-3,0.1c0,0,0,0.5,0.1,1.3c0,0.4,0.1,0.8,0.1,1.3c0.1,0.5,0.1,1,0.2,1.5c0.1,1,0.3,2,0.4,2.8
	c0.1,0.4,0.1,0.7,0.2,0.9c0,0.2,0.1,0.3,0.1,0.3l3-0.6c0,0,0-0.1-0.1-0.4c-0.1-0.2-0.1-0.5-0.1-0.8c-0.1-0.6-0.2-1.1-0.2-1.1
	l1.4-0.2c0,0,0,0.2,0.1,0.6c0.1,0.3,0.1,0.8,0.2,1.2c0.2,0.9,0.4,1.8,0.4,1.8s0,0,0,0.1c0,0.1,0,0.1,0.1,0.2
	c0.1,0.2,0.1,0.5,0.2,0.7c0.1,0.5,0.3,1.1,0.3,1.1l-1.4,0.4c0,0-0.2-0.6-0.3-1.1c-0.1-0.3-0.2-0.6-0.2-0.8c0-0.1,0-0.2-0.1-0.3
	c0-0.1,0-0.1,0-0.1l-2.9,0.7c0,0,0,0.1,0.1,0.3c0.1,0.2,0.1,0.5,0.2,0.9c0.1,0.4,0.2,0.8,0.3,1.3c0.1,0.2,0.1,0.5,0.2,0.7
	c0.1,0.2,0.2,0.5,0.2,0.7c0.1,0.2,0.2,0.5,0.2,0.7c0,0.1,0.1,0.2,0.1,0.4c0,0.1,0.1,0.2,0.1,0.3c0.2,0.4,0.3,0.9,0.5,1.2
	c0.1,0.4,0.2,0.7,0.3,0.9c0.1,0.2,0.1,0.3,0.1,0.3l2.8-1.2c0,0-0.1-0.1-0.1-0.3c-0.1-0.2-0.2-0.5-0.3-0.7c-0.2-0.5-0.4-1.1-0.4-1.1
	l1.4-0.5c0,0,0.5,1.3,0.8,2.1l0.7-0.3c-0.1-0.2-0.2-0.5-0.3-0.7C32,81.8,31.8,81.3,31.6,80.9z"/>
<g>
	<path d="M91.6,24.6c0.2,0.1,0.5,0.2,0.7,0.4c0.5,0.3,1,0.5,1,0.5l1.4-2.7c0,0-0.5-0.2-1.1-0.6C93,21.8,92,21.4,91.1,21
		c-0.1-0.1-0.2-0.1-0.3-0.2c-0.1,0-0.2-0.1-0.4-0.1c-0.2-0.1-0.5-0.2-0.7-0.3c-0.4-0.2-0.9-0.3-1.2-0.5c-0.7-0.2-1.2-0.4-1.2-0.4
		l-1,2.9c0,0,0.6,0.2,1.1,0.4c0.5,0.2,1.1,0.4,1.1,0.4l-0.5,1.4c0,0-0.2-0.1-0.5-0.2c-0.2-0.1-0.3-0.1-0.6-0.2
		c-0.2-0.1-0.4-0.1-0.6-0.2c-0.4-0.1-0.9-0.3-1.2-0.4c-0.2-0.1-0.3-0.1-0.4-0.1c-0.1,0-0.2,0-0.2,0s-0.5-0.2-1.1-0.3
		c-0.3-0.1-0.5-0.2-0.7-0.2c-0.1,0-0.2,0-0.2-0.1c-0.1,0-0.1,0-0.1,0l0.4-1.5c0,0,0,0,0.1,0c0.1,0,0.2,0,0.3,0.1
		c0.2,0.1,0.5,0.1,0.8,0.2c0.6,0.2,1.1,0.3,1.1,0.3l0.9-2.9c0,0-0.5-0.1-1.2-0.3c-0.7-0.2-1.7-0.4-2.7-0.7c-0.3-0.1-0.5-0.1-0.7-0.2
		c-0.2,0-0.5-0.1-0.7-0.1c-0.5-0.1-0.9-0.2-1.3-0.2c-0.1,0-0.2,0-0.3,0c-0.1,0-0.2,0-0.2,0c-0.2,0-0.3,0-0.4,0c-0.2,0-0.3,0-0.3,0
		l-0.4,3.1c0,0,0.1,0,0.4,0c0.2,0,0.5,0.1,0.8,0.1c0.6,0.1,1.1,0.2,1.1,0.2l-0.3,1.4c0,0-0.2,0-0.6-0.1c-0.3-0.1-0.8-0.1-1.3-0.2
		c-0.9-0.1-1.8-0.2-1.8-0.2l-2.2-0.2l0.1-1.5l2.3,0.2l0.3-3c0,0-0.5,0-1.3-0.1c-0.4,0-0.8-0.1-1.3-0.1c-0.5,0-1,0-1.5,0
		c-1,0-2,0-2.8,0c-0.4,0-0.7,0-0.9,0c-0.2,0-0.4,0-0.4,0l0.2,3.1c0,0,0.1,0,0.4,0c0.2,0,0.5,0,0.8,0c0.6,0,1.2,0,1.2,0l0,1.5
		c0,0-0.2,0-0.6,0c-0.3,0-0.8,0-1.3,0c-0.9,0.1-1.8,0.2-1.8,0.2s0,0-0.1,0c-0.1,0-0.1,0-0.3,0c-0.2,0-0.5,0.1-0.8,0.1
		c-0.6,0.1-1.1,0.1-1.1,0.1l-0.2-1.5c0,0,0.6-0.1,1.2-0.2c0.3,0,0.6-0.1,0.8-0.1c0.1,0,0.2,0,0.3,0c0.1,0,0.1,0,0.1,0l-0.3-3
		c0,0-0.1,0-0.4,0c-0.2,0-0.5,0.1-0.9,0.1c-0.4,0.1-0.8,0.1-1.3,0.2c-0.2,0-0.5,0.1-0.7,0.1c-0.2,0-0.5,0.1-0.8,0.1
		c-0.3,0-0.5,0.1-0.8,0.1c-0.1,0-0.2,0-0.4,0.1c-0.1,0-0.2,0.1-0.4,0.1c-0.5,0.1-0.9,0.2-1.3,0.3c-0.4,0.1-0.7,0.2-0.9,0.2
		c-0.2,0.1-0.3,0.1-0.3,0.1l0.8,3c0,0,0.1,0,0.4-0.1c0.2-0.1,0.5-0.1,0.8-0.2c0.6-0.1,1.1-0.3,1.1-0.3l0.3,1.4c0,0-0.9,0.2-1.8,0.4
		c-0.9,0.3-1.8,0.5-1.8,0.5s-0.1,0-0.3,0.1c-0.2,0.1-0.5,0.2-0.7,0.3c-0.5,0.2-1.1,0.4-1.1,0.4l-0.5-1.4c0,0,0.5-0.2,1.1-0.4
		c0.3-0.1,0.5-0.2,0.8-0.3c0.2-0.1,0.3-0.1,0.3-0.1l-0.9-2.9c0,0-0.1,0-0.3,0.1c-0.2,0.1-0.5,0.2-0.9,0.3c-0.4,0.1-0.8,0.3-1.2,0.4
		c-0.5,0.2-0.9,0.4-1.4,0.5c-1,0.4-1.9,0.8-2.6,1.1c-0.3,0.2-0.6,0.3-0.8,0.4c-0.2,0.1-0.3,0.2-0.3,0.2l1.4,2.8c0,0,0.1-0.1,0.3-0.2
		c0.2-0.1,0.5-0.2,0.7-0.3c0.5-0.2,1.1-0.5,1.1-0.5l0.6,1.3c0,0-0.2,0.1-0.5,0.2c-0.3,0.1-0.7,0.3-1.2,0.5c-0.4,0.2-0.5,0.2-0.5,0.2
		l0.4,0.7l0.1,0c0.2-0.1,0.5-0.2,0.7-0.4c0.5-0.2,1-0.5,1.4-0.6c0.4-0.2,0.6-0.3,0.6-0.3L53.3,23c0,0,0,0-0.1,0
		c-0.1,0-0.1,0.1-0.2,0.1c-0.2,0.1-0.5,0.2-0.7,0.3c-0.5,0.2-1.1,0.5-1.1,0.5l-0.7-1.4c0,0,0.4-0.2,0.9-0.4c0.3-0.1,0.6-0.3,0.9-0.4
		c0.3-0.1,0.7-0.3,1.1-0.4c0.4-0.1,0.7-0.3,1.1-0.4c0.4-0.1,0.7-0.2,1-0.3c0.6-0.2,1-0.3,1-0.3l0.5,1.4c0,0-0.6,0.2-1.1,0.4
		c-0.3,0.1-0.6,0.2-0.8,0.3c-0.2,0.1-0.3,0.1-0.3,0.1l1.1,2.9c0,0,0.2-0.1,0.4-0.2c0.3-0.1,0.6-0.2,1-0.3c0.3-0.1,0.7-0.2,1-0.3
		c0.1,0,0.2-0.1,0.3-0.1c0.1,0,0.1,0,0.1,0s0.3-0.1,0.7-0.2c0.2-0.1,0.4-0.1,0.7-0.2c0.2-0.1,0.5-0.1,0.8-0.2
		c0.5-0.1,1.1-0.2,1.5-0.3c0.2,0,0.4-0.1,0.5-0.1c0.1,0,0.2,0,0.2,0l-0.6-3c0,0-0.1,0-0.4,0.1c-0.2,0.1-0.5,0.1-0.8,0.2
		c-0.6,0.1-1.2,0.3-1.2,0.3l-0.4-1.5c0,0,0.4-0.1,1-0.2c0.3-0.1,0.6-0.1,1-0.2c0.4-0.1,0.8-0.1,1.2-0.2c0.4-0.1,0.8-0.1,1.2-0.2
		c0.4-0.1,0.7-0.1,1-0.1c0.6-0.1,1-0.1,1-0.1l0.2,1.5c0,0-0.6,0.1-1.2,0.2c-0.3,0-0.6,0.1-0.8,0.1c-0.2,0-0.4,0.1-0.4,0.1l0.5,3
		c0,0,0.2,0,0.5-0.1c0.3,0,0.6-0.1,1-0.1c0.4,0,0.7-0.1,1-0.1c0.1,0,0.3,0,0.3,0c0.1,0,0.1,0,0.1,0s0.3,0,0.7-0.1
		c0.2,0,0.4,0,0.7-0.1c0.3,0,0.5-0.1,0.8-0.1c0.5,0,1.1,0,1.5,0c0.2,0,0.4,0,0.5,0c0.1,0,0.2,0,0.2,0l0-3c0,0,0,0-0.1,0
		c-0.1,0-0.2,0-0.3,0c-0.2,0-0.5,0-0.8,0c-0.6,0-1.2,0-1.2,0l-0.1-1.5c0,0,0.4,0,1,0c0.3,0,0.7,0,1,0c0.2,0,0.4,0,0.6,0
		c0.2,0,0.4,0,0.6,0c0.8,0,1.6,0,2.2,0.1c0.6,0,1,0.1,1,0.1l-0.1,1.5c0,0-0.6,0-1.2-0.1c-0.1,0-0.3,0-0.4,0c-0.1,0-0.3,0-0.4,0
		c-0.2,0-0.4,0-0.4,0l-0.1,3.1c0,0,0.2,0,0.5,0c0.1,0,0.1,0,0.2,0c0.1,0,0.2,0,0.2,0c0.2,0,0.4,0,0.5,0c0.7,0.1,1.5,0.1,1.5,0.1
		s1.1,0.1,2.2,0.3C79,23,80,23.2,80,23.2l0.6-3c0,0-0.6-0.1-1.2-0.2c-0.3-0.1-0.6-0.1-0.8-0.1c-0.2,0-0.4-0.1-0.4-0.1l0.2-1.5
		c0,0,0,0,0.1,0c0,0,0.1,0,0.2,0c0.2,0,0.4,0.1,0.7,0.1c0.3,0.1,0.6,0.1,1,0.2c0.2,0,0.4,0.1,0.6,0.1c0.2,0,0.4,0.1,0.6,0.1
		c0.4,0.1,0.8,0.2,1.2,0.3c0.4,0.1,0.7,0.2,1,0.2c0.6,0.2,1,0.3,1,0.3l-0.4,1.4c0,0-0.6-0.2-1.1-0.3c-0.3-0.1-0.6-0.1-0.8-0.2
		c-0.2,0-0.4-0.1-0.4-0.1l-0.7,3c0,0,0.2,0,0.4,0.1c0.1,0,0.3,0.1,0.5,0.1c0.2,0,0.3,0.1,0.5,0.1c0.7,0.2,1.4,0.4,1.4,0.4
		s0.3,0.1,0.7,0.2c0.4,0.1,0.9,0.3,1.4,0.5c0.3,0.1,0.5,0.2,0.8,0.3c0.2,0.1,0.5,0.2,0.7,0.3c0.4,0.1,0.6,0.2,0.6,0.2l1.1-2.8
		c0,0-0.6-0.2-1.1-0.4c-0.3-0.1-0.6-0.2-0.8-0.3c-0.2-0.1-0.4-0.1-0.4-0.1l0.5-1.4c0,0,0.1,0,0.3,0.1c0.2,0.1,0.4,0.2,0.7,0.3
		c0.3,0.1,0.6,0.2,1,0.4c0.4,0.1,0.7,0.3,1.1,0.4c0.4,0.2,0.7,0.3,1.1,0.5c0.2,0.1,0.3,0.2,0.5,0.2c0.1,0,0.2,0.1,0.2,0.1
		c0.1,0,0.1,0.1,0.2,0.1c0.5,0.3,0.9,0.5,0.9,0.5L93,24.4c0,0-0.5-0.3-1.1-0.5c-0.5-0.2-1.1-0.5-1.1-0.5l-1.2,2.8
		c0,0,0.2,0.1,0.4,0.2c0.3,0.1,0.6,0.3,0.9,0.4c0.7,0.3,1.3,0.7,1.3,0.7l0.4-0.7c0,0-0.5-0.3-1-0.5c-0.3-0.1-0.5-0.3-0.7-0.3
		c-0.2-0.1-0.3-0.1-0.3-0.1l0.6-1.4C91.3,24.4,91.4,24.5,91.6,24.6z"/>
</g>
<path class="st2" d="M18.1,67.1"/>
<path d="M112.3,81c0.1-0.2,0.1-0.3,0.2-0.5c0-0.1,0.1-0.2,0.1-0.2l2.8,1c0,0,0,0.1-0.1,0.3c-0.1,0.2-0.2,0.5-0.3,0.8
	c-0.2,0.6-0.4,1.1-0.4,1.1l1.4,0.6c0,0,0.1-0.4,0.4-0.9c0.1-0.3,0.2-0.6,0.4-1c0.1-0.4,0.2-0.7,0.4-1.1c0.1-0.4,0.2-0.8,0.4-1.1
	c0.1-0.4,0.2-0.7,0.3-1c0.2-0.6,0.3-1,0.3-1l-1.4-0.4c0,0-0.2,0.6-0.3,1.1c-0.1,0.3-0.2,0.6-0.2,0.8c-0.1,0.2-0.1,0.3-0.1,0.3
	L113,79c0,0,0.1-0.2,0.1-0.4c0.1-0.3,0.2-0.6,0.3-1c0.1-0.4,0.2-0.7,0.3-1c0-0.1,0.1-0.2,0.1-0.3c0-0.1,0-0.1,0-0.1s0.1-0.3,0.1-0.7
	c0-0.2,0.1-0.4,0.2-0.7c0.1-0.2,0.1-0.5,0.2-0.8c0.1-0.5,0.2-1.1,0.2-1.5c0-0.2,0.1-0.4,0.1-0.5c0-0.1,0-0.2,0-0.2l3,0.4
	c0,0,0,0,0,0.1c0,0.1,0,0.2,0,0.3c0,0.2-0.1,0.5-0.1,0.8c-0.1,0.6-0.2,1.2-0.2,1.2l1.5,0.3c0,0,0.1-0.4,0.2-1c0-0.3,0.1-0.6,0.2-1
	c0-0.2,0.1-0.4,0.1-0.6c0-0.2,0-0.4,0.1-0.6c0.1-0.8,0.2-1.6,0.2-2.2c0-0.6,0.1-1,0.1-1l-1.5-0.1c0,0,0,0.6-0.1,1.2
	c0,0.1,0,0.3,0,0.4c0,0.1,0,0.3,0,0.4c0,0.2,0,0.4,0,0.4l-3-0.3c0,0,0-0.2,0.1-0.5c0-0.1,0-0.1,0-0.2c0-0.1,0-0.2,0-0.2
	c0-0.2,0-0.4,0-0.5c0-0.7,0.1-1.5,0.1-1.5s0-1.1,0-2.2c0-1.1-0.1-2.2-0.1-2.2l3-0.2c0,0,0,0.6,0,1.2c0,0.3,0,0.6,0,0.8
	c0,0.2,0,0.4,0,0.4l1.5,0c0,0,0,0,0-0.1c0,0,0-0.1,0-0.2c0-0.2,0-0.4,0-0.7c0-0.3,0-0.6,0-1c0-0.2,0-0.4,0-0.6c0-0.2,0-0.4,0-0.6
	c0-0.4-0.1-0.8-0.1-1.2c0-0.4-0.1-0.7-0.1-1c-0.1-0.6-0.1-1-0.1-1l-1.5,0.2c0,0,0.1,0.6,0.2,1.2c0,0.3,0.1,0.6,0.1,0.8
	c0,0.2,0,0.4,0,0.4l-3,0.3c0,0,0-0.2,0-0.5c0-0.1,0-0.3,0-0.5c0-0.2,0-0.4-0.1-0.5c-0.1-0.7-0.2-1.4-0.2-1.4l0.8-0.1
	c0,0,0.1,0.6,0.2,1.1c0,0.3,0.1,0.6,0.1,0.8c0,0.1,0,0.2,0,0.3c0,0.1,0,0.1,0,0.1l1.5-0.2c0,0,0,0,0-0.1c0-0.1,0-0.2,0-0.3
	c0-0.2-0.1-0.5-0.1-0.8c-0.1-0.6-0.2-1.1-0.2-1.1l3-0.5c0,0,0.1,0.5,0.2,1.3c0.1,0.8,0.2,1.8,0.3,2.8c0,0.3,0.1,0.5,0.1,0.8
	c0,0.2,0,0.5,0,0.7c0,0.5,0,0.9,0,1.3c0,0.1,0,0.2,0,0.3c0,0.1,0,0.2,0,0.2c0,0.2,0,0.3,0,0.4c0,0.2,0,0.3,0,0.3l-3.1,0
	c0,0,0-0.1,0-0.4c0-0.2,0-0.5,0-0.8c0-0.6,0-1.2,0-1.2l-1.5,0.1c0,0,0,0.2,0,0.6c0,0.3,0,0.8,0,1.3c0,0.9,0,1.8,0,1.8l-0.1,2.2
	l1.5,0.1l0.2-2.3l3,0.1c0,0,0,0.5-0.1,1.3c0,0.4-0.1,0.8-0.1,1.3c-0.1,0.5-0.1,1-0.2,1.5c-0.1,1-0.3,2-0.4,2.8
	c-0.1,0.4-0.1,0.7-0.2,0.9c0,0.2-0.1,0.3-0.1,0.3l-3-0.6c0,0,0-0.1,0.1-0.4c0.1-0.2,0.1-0.5,0.1-0.8c0.1-0.6,0.2-1.1,0.2-1.1
	l-1.4-0.2c0,0,0,0.2-0.1,0.6c-0.1,0.3-0.1,0.8-0.2,1.2c-0.2,0.9-0.4,1.8-0.4,1.8s0,0,0,0.1c0,0.1,0,0.1-0.1,0.2
	c-0.1,0.2-0.1,0.5-0.2,0.7c-0.1,0.5-0.3,1.1-0.3,1.1l1.4,0.4c0,0,0.2-0.6,0.3-1.1c0.1-0.3,0.2-0.6,0.2-0.8c0-0.1,0-0.2,0.1-0.3
	c0-0.1,0-0.1,0-0.1l3,0.7c0,0,0,0.1-0.1,0.3c-0.1,0.2-0.1,0.5-0.2,0.9c-0.1,0.4-0.2,0.8-0.3,1.3c-0.1,0.2-0.1,0.5-0.2,0.7
	c-0.1,0.2-0.2,0.5-0.2,0.7c-0.1,0.2-0.2,0.5-0.2,0.7c0,0.1-0.1,0.2-0.1,0.4c0,0.1-0.1,0.2-0.1,0.3c-0.2,0.4-0.3,0.9-0.5,1.2
	c-0.1,0.4-0.2,0.7-0.3,0.9c-0.1,0.2-0.1,0.3-0.1,0.3l-2.8-1.2c0,0,0.1-0.1,0.1-0.3c0.1-0.2,0.2-0.5,0.3-0.7c0.2-0.5,0.4-1.1,0.4-1.1
	l-1.4-0.5c0,0-0.5,1.3-0.8,2.1l-0.7-0.3c0.1-0.2,0.2-0.5,0.3-0.7C112,81.8,112.2,81.3,112.3,81z"/>
<path class="st3" d="M55,62.2c10.3-0.3,7.8,13.1,7.8,13.1s-0.2-5.5-8.8-4.6c-0.3,0,2.5-1.5,2.2-1.5c-9.7-0.1-9.4-14.8-9.4-14.8
	s-0.2,7.1,6.8,9.9c0,0-1.6-2.3-1-2.2C53.4,62.2,54.1,62.3,55,62.2z"/>
<path class="st3" d="M66,76.8c10.2-7.3-0.7-14.1,0.5-12.3c1.2,1.8-1.6,10.7-1.6,10.7s4.1-7.2,4-3.5C68.8,75.7,65.3,77.3,66,76.8z"/>
<path class="st3" d="M67.9,62c0-5.2-1.5-8.8-6.6-13c-4.2-3.5-0.4-11.5-0.4-11.5s-1.3,6.7,1.2,9.8c1.4,1.9,2.4,2.5,3.2,3.4
	c3.6,4,2.9,6.7,2.9,6.7c0.8-8.3,2.2-9.6,10.1-16.8c7.1-6.4,4.7-14.7,1.3-17.8c-0.4-0.4,0.9,1.6,0.5,4.8c-0.4,2.7-4,5.5-7.2,7.8
	c-4.4,3.1-3.9,7.5-3.9,7.5c-0.8-1.4-1.6-4.7,1.5-7.1c6.8-5.3,7.7-6.1,6.5-12.1C75.9,17.3,67,8.8,67,8.8s6.4,7.4-6.8,19.9
	c-9,8.4-4.8,13.2-4.8,13.2c-2.7-1.2-2.4-6.7-2.4-6.7s-5.3,7.3,2.6,14.9c3.4,3.3,5.1,2.7,8.5,5.4C66.5,57.5,67.9,62,67.9,62z"/>
<path class="st3" d="M53.6,53.2C70,57.8,64.4,69.9,64.4,69.9s0.2-5.3-5.5-7.6c-21.3-8.5-10.8-24-10.8-24s-2.5,9.6,2.8,11.7
	c0,0,4.5,1.9,5.1,2.2C55.9,52.2,52.7,53,53.6,53.2z"/>
<path class="st3" d="M86.5,70.7c-5.4-3.8-8.2,3.4-8.2,3.4s1.8-2.5,6.1,0.9c0.2,0.1-0.8-1.6-0.7-1.5c5.1,3.4,9.5-3.7,9.5-3.7
	s-2.1,3.4-6.6,2.3c0,0,1.6-0.5,1.2-0.7C87.4,71.2,87,71,86.5,70.7z"/>
<path class="st3" d="M73.7,46.1c-6.9,4.8-4.2,17.8-4.2,17.8s-0.1-7.9,5-12.7c2.9-2.7,9.1-2.9,9.3-10.8l1.7,3.5c0,0,1-0.7,0.7-5.4
	c1.2,2.6,1.9,5.4-1.3,9.1c-1.7,1.9-4.3,3.7-4.1,3.6c17.6-8,3.7-20.7,3.7-20.7S82.9,39.7,73.7,46.1z"/>
<g>
	<path class="st4" d="M73.9,126h-4c-0.9,0-1.6,0.7-1.6,1.6c0,0.9,0.7,1.6,1.6,1.6h4c0.9,0,1.6-0.7,1.6-1.6
		C75.5,126.7,74.8,126,73.9,126z"/>
	<g>
		<g>
			<polygon class="st1" points="66.1,124.7 78,124.7 78.9,86.6 65.3,86.6 			"/>
			<path class="st0" d="M79.6,85.7c-0.1-0.1-0.2-0.2-0.3-0.2H64.9c-0.1,0-0.2,0.1-0.3,0.2c-0.1,0.1-0.1,0.3-0.1,0.4l2.8,39.9
				c0,0.3,0.1,1.1,0.6,1.1h8c0.6,0,0.8-0.8,0.8-1.1l3-39.9C79.7,86,79.6,85.8,79.6,85.7z"/>
		</g>
	</g>
	<path d="M67,89.5l2.3,35.2h-0.5l-2.2-35.2c0-1.1,0.5-1.1,0.9-1.1C67.8,88.6,67,88.5,67,89.5z"/>
	<path d="M69.7,89.4l1.1,35.3h-0.5l-1-35.1c0-1.1,0.3-1.3,0.7-1.3C70.3,88.4,69.7,88.4,69.7,89.4z"/>
	<path d="M77.3,89.5l-2.4,35.2h-0.5l2.5-35.2c0-1.1,0.5-1,0.9-1C78.1,88.6,77.3,88.5,77.3,89.5z"/>
	<path d="M72.3,89.6l-0.2,35.1h-0.5l0.2-35.1c0-1.2,0.5-1.3,0.8-1.3C73.1,88.4,72.3,88.6,72.3,89.6z"/>
	<path d="M74.7,89.5l-1.1,35.2H73l1.3-35.2c0-1.1,0.4-1.2,0.7-1.2C75.4,88.4,74.7,88.5,74.7,89.5z"/>
	<g>
		<g>
			<path class="st0" d="M80,81.8H64.2c-0.7,0-0.6-1.4-0.6-2.2c0-0.8-0.7-1.4,0-1.4h16.9c0.7,0,0,0.6,0,1.4
				C80.5,80.4,80.6,81.8,80,81.8z"/>
		</g>
	</g>
	<path class="st5" d="M79.1,85.1H65.5c-0.6,0-1.1,0-1.1-1.1c0-1.1,0.5-1.1,1.1-1.1l6.6-0.4l6.9,0.4c0.6,0,1.1,0,1.1,1.1
		C80.2,85.1,79.7,85.1,79.1,85.1z"/>
	<path class="st0" d="M84.7,77.2c0,0-7.4-0.9-12.5-0.9c-5.1,0-12.5,0.9-12.5,0.9c-0.6,0-1.2-0.4-1.2-0.9v0c0-0.5,0.5-0.9,1.2-0.9
		c0,0,8-1,12.5-0.9c4.7,0,12.5,0.9,12.5,0.9c0.6,0,1.2,0.4,1.2,0.9v0C85.8,76.8,85.3,77.2,84.7,77.2z"/>
	<g>
		<path class="st6" d="M81.4,78.6c0,0-3.7-0.5-9.1-0.5c-5.9,0-9.4,0.5-9.4,0.5c-0.6,0-1-0.4-1-0.9c0-0.5,0.5-0.9,1-0.9
			c0,0,4.2-0.5,9.4-0.5c4.6,0,9.1,0.5,9.1,0.5c0.6,0,1,0.4,1,0.9C82.4,78.2,81.9,78.6,81.4,78.6z"/>
		<path class="st7" d="M68.5,76.8c0,0,3.6-0.1,5.6-0.1c3.7,0.1,7,0.5,7,0.5c2.2,0.2,0.7,1.6,0.2,1.1c0,0,1-0.7-0.8-0.8
			c-1.5-0.1-3.7-0.4-6.1-0.5C70.7,76.9,69.4,76.8,68.5,76.8z"/>
	</g>
	<g>
		<path class="st8" d="M80.5,83.6c0,0-3.5-0.2-8.1-0.2c-5.2,0-8.3,0.2-8.3,0.2c-0.6,0-1-0.4-1-0.9c0-0.5,0.5-0.9,1-0.9
			c0,0,3.2-0.2,8.3-0.2c4.6,0,8.1,0.2,8.1,0.2c0.6,0,1,0.4,1,0.9C81.5,83.2,81.1,83.6,80.5,83.6z"/>
		<path class="st7" d="M69.7,81.8c0,0,3-0.2,4.7-0.2c3.1,0,5.9,0.3,5.9,0.3c1.9,0.2,0.6,1.5,0.2,1.1c0,0,0.8-0.7-0.7-0.8
			c-1.3-0.1-3.1-0.3-5.1-0.3C71.5,81.8,70.5,81.8,69.7,81.8z"/>
	</g>
	<g>
		<path class="st9" d="M79.4,86.2c0,0-1.3-0.1-7.3-0.3c-6.1,0.1-7.5,0.4-7.5,0.4c-0.8,0.2-1.2,0-1.2-0.6c0-0.7,0.3-0.7,1.2-0.9
			c0,0,2.6-0.2,7.4-0.1c5.5,0.1,8,0.1,8,0.1c0.7,0.1,1.1,0.2,1.1,1C81.1,86.3,80.3,86.4,79.4,86.2z"/>
		<path class="st7" d="M70.9,85c0,0,3-0.1,4.4-0.1c2.5,0,4.8,0.2,4.8,0.2c1.5,0.1,0.5,1.3,0.2,0.9c0,0,0.7-0.6-0.6-0.7
			c-1-0.1-2.5-0.2-4.2-0.2C72.9,85.1,71.5,85,70.9,85z"/>
	</g>
	<path class="st0" d="M79.3,87.3c0,0-1.4-0.3-7.2-0.2c-5.6,0-7.2,0.2-7.2,0.2c-0.4,0.1-0.7-0.2-0.7-0.2c-0.4-0.4,0-0.9,0.6-1.1
		c0,0,1.5-0.2,7.2-0.2s7.2,0.2,7.2,0.2c0.6,0.2,0.8,0.6,0.7,0.9C79.9,87.3,79.7,87.3,79.3,87.3z"/>
</g>
<path class="st3" d="M86.4,63.7l1.3-1.9c-3.5,0.4-7.7,0.8-10.2,2.5c0,0,3.2-3.6,5.7-3.6c-3.1-0.5-5.5,0.2-7.7,2.4
	C73,65.6,74.1,71,74.1,71c-2-2.6-1.8-8.5,2.6-11.4c3.9-2.5,8.5-2.2,8.5-2.2l-2.8,2c9.4,0.7,13.1-7,13.1-7s0.7,2.9-0.3,4.9
	c5.3-7.5-0.3-14.6-0.4-14.8c-0.3-0.7,1.4,9.2-11.6,13c0,0-0.3-1.3,1.2-2.9c1.9-2,5.5-4.3,4.4-3.9c-4.8,1.6-3.7,1.2-9.4,4.6
	c-6.6,3.9-2.7-2.2-2.7-2.2c-14.3,16.4-1,22.4-1,22.4s-1-5.1,2.8-6.2c0.2-0.1-0.9,2.4-0.7,2.3c2.3-1.2,3.6-0.8,7.7-0.5
	c15.5,0.9,14.8-12.2,14.8-12.2S97.9,63.9,86.4,63.7z"/>
</svg>
