<?xml version="1.0" encoding="utf-8"?>
<!-- Generator: Adobe Illustrator 24.0.1, SVG Export Plug-In . SVG Version: 6.00 Build 0)  -->
<svg version="1.1" id="Слой_1" xmlns="http://www.w3.org/2000/svg" xmlns:xlink="http://www.w3.org/1999/xlink" x="0px" y="0px"
	 viewBox="0 0 99.5 19.8" style="enable-background:new 0 0 99.5 19.8;" xml:space="preserve">
<g>
	<path d="M9.3,12.1c0,2.4,0,4.4,0.1,5.4c0.1,0.7,0.2,1.3,1,1.4c0.4,0.1,0.9,0.1,1.1,0.1c0.2,0,0.2,0.1,0.2,0.1
		c0,0.1-0.1,0.2-0.4,0.2c-1.4,0-2.9-0.1-3.1-0.1s-1.7,0.1-2.4,0.1c-0.3,0-0.4-0.1-0.4-0.2c0-0.1,0-0.1,0.2-0.1c0.2,0,0.5,0,0.8-0.1
		c0.5-0.1,0.6-0.6,0.7-1.4c0.1-1,0.1-3,0.1-5.4V1.5l-3.7,0c-1.5,0-2.1,0.2-2.5,0.8C0.6,2.8,0.6,2.9,0.5,3.1C0.4,3.3,0.3,3.4,0.2,3.4
		c-0.1,0-0.1-0.1-0.1-0.2c0-0.2,0.5-2.4,0.5-2.6c0-0.1,0.1-0.5,0.2-0.5c0.2,0,0.4,0.2,1.1,0.3c0.7,0.1,1.7,0.1,2,0.1h9.4
		c0.8,0,1.4,0,1.8-0.1c0.4,0,0.6-0.1,0.7-0.1C16,0.2,16,0.4,16,0.5c0,0.7-0.1,2.5-0.1,2.7c0,0.2-0.1,0.3-0.2,0.3
		c-0.1,0-0.2-0.1-0.2-0.4l0-0.3c-0.1-0.8-0.7-1.3-3.1-1.4l-3.1,0V12.1z"/>
	<path d="M27.5,0.1c5.6,0,9.8,3.5,9.8,9.4c0,5.6-3.9,10.2-10,10.2c-6.8,0-9.7-5.3-9.7-9.8C17.6,5.8,20.6,0.1,27.5,0.1z M28,18.7
		c2.2,0,6.9-1.3,6.9-8.6c0-6-3.6-9.2-7.6-9.2c-4.2,0-7.3,2.7-7.3,8.2C20,15,23.5,18.7,28,18.7z"/>
	<path d="M42.6,7.7c0-3.9,0-4.6,0-5.4c-0.1-0.9-0.2-1.2-1.1-1.4c-0.2,0-0.6-0.1-0.8-0.1c-0.1,0-0.2,0-0.2-0.1c0-0.1,0.1-0.2,0.4-0.2
		c1.1,0,2.7,0.1,2.8,0.1c0.3,0,2.2-0.1,2.9-0.1c1.6,0,3.2,0.1,4.6,1.1c0.6,0.4,1.7,1.7,1.7,3.4c0,1.8-0.8,3.7-3,5.8
		c2,2.6,3.8,4.8,5.2,6.4c1.3,1.4,2.4,1.7,3,1.8c0.5,0.1,0.8,0.1,1,0.1c0.1,0,0.2,0.1,0.2,0.1c0,0.1-0.2,0.2-0.6,0.2h-1.8
		c-1.4,0-2-0.1-2.7-0.5c-1.1-0.6-1.9-1.8-3.4-3.7c-1-1.4-2.2-3-2.7-3.7c-0.1-0.1-0.2-0.1-0.3-0.1l-3.1-0.1c-0.1,0-0.2,0.1-0.2,0.2
		v0.6c0,2.4,0,4.4,0.1,5.4c0.1,0.7,0.2,1.3,1,1.4c0.4,0.1,0.9,0.1,1.1,0.1C47,19,47,19,47,19.1c0,0.1-0.1,0.2-0.4,0.2
		c-1.4,0-2.9-0.1-3.1-0.1c0,0-1.6,0.1-2.3,0.1c-0.3,0-0.4-0.1-0.4-0.2c0-0.1,0-0.1,0.2-0.1c0.2,0,0.5,0,0.7-0.1
		c0.5-0.1,0.6-0.6,0.7-1.4c0.1-1,0.1-3,0.1-5.4V7.7z M44.6,9.8c0,0.1,0,0.2,0.2,0.3c0.4,0.2,1.5,0.4,2.6,0.4c0.6,0,1.3-0.1,1.9-0.5
		c0.9-0.6,1.5-1.9,1.5-3.8c0-3.1-1.6-5-4.3-5c-0.8,0-1.4,0.1-1.7,0.1c-0.1,0-0.2,0.1-0.2,0.3V9.8z"/>
	<path d="M62,17c-2.4-2.2-3-5-3-7.4c0-1.7,0.6-4.6,2.8-6.8c1.5-1.5,3.8-2.7,7.6-2.7c1,0,2.4,0.1,3.6,0.3c0.9,0.2,1.7,0.3,2.5,0.4
		c0.3,0,0.3,0.1,0.3,0.3c0,0.2-0.1,0.5-0.1,1.4c0,0.8,0,2.2-0.1,2.6c0,0.4-0.1,0.5-0.2,0.5c-0.2,0-0.2-0.2-0.2-0.5c0-1-0.4-2-1-2.5
		c-0.9-0.7-2.8-1.4-5-1.4c-3.3,0-4.9,1-5.7,1.8c-1.8,1.7-2.2,4-2.2,6.5c0,4.8,3.7,9.1,9,9.1c1.9,0,3.3-0.2,4.3-1.2
		c0.5-0.5,0.8-1.6,0.9-2.1c0-0.3,0.1-0.4,0.2-0.4c0.1,0,0.2,0.2,0.2,0.4c0,0.2-0.3,2.3-0.5,3.2c-0.1,0.5-0.2,0.5-0.6,0.7
		c-1,0.4-2.9,0.6-4.5,0.6C66.5,19.7,64,18.7,62,17z"/>
	<path d="M97,12.1c0,2.4,0,4.4,0.1,5.4c0.1,0.7,0.2,1.3,1,1.4c0.4,0.1,0.9,0.1,1.1,0.1c0.2,0,0.2,0.1,0.2,0.1c0,0.1-0.1,0.2-0.4,0.2
		c-1.4,0-2.9-0.1-3.1-0.1s-1.7,0.1-2.4,0.1c-0.3,0-0.4-0.1-0.4-0.2c0-0.1,0-0.1,0.2-0.1c0.2,0,0.5,0,0.8-0.1
		c0.5-0.1,0.6-0.6,0.7-1.4c0.1-1,0.1-3,0.1-5.4V9.4c0-0.1-0.1-0.1-0.1-0.1H84.2c-0.1,0-0.1,0-0.1,0.1v2.6c0,2.4,0,4.4,0.1,5.4
		c0.1,0.7,0.2,1.3,1,1.4c0.3,0.1,0.9,0.1,1.1,0.1c0.2,0,0.2,0.1,0.2,0.1c0,0.1-0.1,0.2-0.4,0.2c-1.4,0-2.9-0.1-3.1-0.1
		s-1.7,0.1-2.5,0.1c-0.3,0-0.4-0.1-0.4-0.2c0-0.1,0-0.1,0.2-0.1c0.2,0,0.5,0,0.7-0.1c0.5-0.1,0.6-0.6,0.7-1.4c0.1-1,0.1-3,0.1-5.4
		V7.7c0-3.9,0-4.6,0-5.4c-0.1-0.9-0.2-1.2-1.1-1.4c-0.2,0-0.6-0.1-0.8-0.1c-0.1,0-0.2,0-0.2-0.1c0-0.1,0.1-0.2,0.4-0.2
		c1.1,0,2.7,0.1,2.8,0.1s1.7-0.1,2.4-0.1c0.3,0,0.4,0,0.4,0.2c0,0.1-0.1,0.1-0.2,0.1c-0.2,0-0.3,0-0.6,0.1c-0.7,0.1-0.9,0.5-0.9,1.4
		c0,0.8,0,1.5,0,5.4v0.5c0,0.1,0.1,0.1,0.1,0.1h10.6c0.1,0,0.1,0,0.1-0.1V7.7c0-3.9,0-4.6,0-5.4c0-0.9-0.2-1.2-1.1-1.4
		c-0.2,0-0.6-0.1-0.8-0.1c-0.1,0-0.2,0-0.2-0.1c0-0.1,0.1-0.2,0.4-0.2c1.1,0,2.7,0.1,2.8,0.1s1.7-0.1,2.5-0.1c0.3,0,0.4,0,0.4,0.2
		c0,0.1-0.1,0.1-0.2,0.1c-0.2,0-0.3,0-0.6,0.1c-0.7,0.1-0.9,0.5-0.9,1.4c0,0.8,0,1.5,0,5.4V12.1z"/>
</g>
<path d="M98.3,140.7"/>
</svg>
